<svg xmlns="http://www.w3.org/2000/svg" xmlns:xlink="http://www.w3.org/1999/xlink" width="51" height="51" viewBox="0 0 51 51">
  <defs>
    <clipPath id="clip-path">
      <rect id="Rectangle_9" data-name="Rectangle 9" width="33.041" height="26.231" fill="#0e095c"/>
    </clipPath>
  </defs>
  <g id="audio" transform="translate(-1672 -567)">
    <circle id="Ellipse_3" data-name="Ellipse 3" cx="25.5" cy="25.5" r="25.5" transform="translate(1672 567)" fill="#67fd65"/>
    <g id="Group_10" data-name="Group 10" transform="translate(1680.979 579.384)">
      <g id="Group_7" data-name="Group 7" transform="translate(0 0)" clip-path="url(#clip-path)">
        <path id="Path_9" data-name="Path 9" d="M0,12.094a1.691,1.691,0,0,1,1.9-1.234c1.224.036,2.45.016,3.675,0a.888.888,0,0,0,.513-.185q3.932-3.237,7.849-6.492a1.474,1.474,0,0,1,2.26.163,1.964,1.964,0,0,1,.309.985c.044.772.014,1.547.014,2.321q0,8.818,0,17.635a1.521,1.521,0,0,1-1.341,1.68,1.54,1.54,0,0,1-1.212-.414q-2.976-2.469-5.957-4.935c-.645-.535-1.284-1.078-1.94-1.6a.856.856,0,0,0-.488-.173c-1.2-.014-2.409-.044-3.61,0A1.755,1.755,0,0,1,0,18.673Z" transform="translate(0 -2.077)" fill="#0e095c"/>
        <path id="Path_10" data-name="Path 10" d="M64.719,12.785a19.723,19.723,0,0,1-4.461,12.8,1.5,1.5,0,0,1-2.164.323,1.554,1.554,0,0,1-.4-2.356,18.448,18.448,0,0,0,2.075-3.214,15.766,15.766,0,0,0,1.5-4.968A15.766,15.766,0,0,0,58.436,3.987c-.3-.421-.63-.816-.958-1.214A1.565,1.565,0,0,1,57.761.358a1.52,1.52,0,0,1,2.217.294A18.946,18.946,0,0,1,64.4,9.959c.188,1.1.253,2.216.32,2.826" transform="translate(-31.678 0)" fill="#0e095c"/>
        <path id="Path_11" data-name="Path 11" d="M51.01,19.671a11.894,11.894,0,0,1-2.335,7.16,1.5,1.5,0,0,1-2.081.409,1.59,1.59,0,0,1-.611-2.254,9.6,9.6,0,0,0,1.474-3.092A8.643,8.643,0,0,0,46.085,14.6a3.748,3.748,0,0,1-.562-.964,1.661,1.661,0,0,1,.973-1.9,1.509,1.509,0,0,1,1.895.482,11.832,11.832,0,0,1,2.62,7.453" transform="translate(-25.252 -6.431)" fill="#0e095c"/>
      </g>
    </g>
  </g>
</svg>
