<svg xmlns="http://www.w3.org/2000/svg" xmlns:xlink="http://www.w3.org/1999/xlink" width="345" height="345" viewBox="0 0 345 345">
  <defs>
    <clipPath id="clip-path">
      <rect id="Rectangle_97" data-name="Rectangle 97" width="135.395" height="135.41" fill="#0f095c"/>
    </clipPath>
  </defs>
  <g id="bgGray" transform="translate(0.434)">
    <g id="Group_116" data-name="Group 116" opacity="0.481" style="mix-blend-mode: hard-light;isolation: isolate">
      <rect id="Rectangle_88" data-name="Rectangle 88" width="345" height="345" rx="48" transform="translate(-0.434)" fill="#fff" style="mix-blend-mode: screen;isolation: isolate"/>
    </g>
    <g id="Group_117" data-name="Group 117" transform="translate(98.305 109.004)">
      <g id="Group_117-2" data-name="Group 117" clip-path="url(#clip-path)">
        <path id="Path_56" data-name="Path 56" d="M106.756,0a18.324,18.324,0,0,1,12.918,5.33c3.328,3.254,6.608,6.557,9.895,9.853,7.741,7.765,7.779,19.229.045,26.977Q103.856,67.966,78.061,93.735,65.845,105.954,53.6,118.148a7.9,7.9,0,0,1-2.939,1.806q-22.272,7.51-44.585,14.9a7.844,7.844,0,0,1-2.592.556c-2.62-.075-4.116-2.5-3.231-5.178q4.7-14.237,9.448-28.458c1.925-5.789,3.825-11.587,5.806-17.357a6.669,6.669,0,0,1,1.516-2.472Q55.088,43.805,93.2,5.715A18.7,18.7,0,0,1,106.756,0M89.521,20.178,24.863,84.847,50.5,110.49l64.652-64.664L89.521,20.178m31.308,20.243c1.326-1.312,2.7-2.592,3.987-3.96a11.01,11.01,0,0,0,.2-15.207c-3.518-3.782-7.209-7.411-10.961-10.962a10.56,10.56,0,0,0-9.124-2.706c-4.624.64-7.1,4.175-9.968,6.963l25.867,25.872M20.782,92.163,9.527,125.839l33.7-11.23L20.782,92.163" transform="translate(0)" fill="#0f095c"/>
      </g>
    </g>
  </g>
</svg>
