<svg width="22" height="20" viewBox="0 0 22 20" fill="none" xmlns="http://www.w3.org/2000/svg">
<circle cx="10.5" cy="9.5" r="7.5" fill="#FCA5A5"/>
<path fill-rule="evenodd" clip-rule="evenodd" d="M3.15942 0.156758C2.29066 0.45743 1.84924 1.14314 2.04651 1.88552C2.18605 2.41065 2.76293 2.9154 3.95409 3.55446C5.56429 4.41824 7.15058 5.53071 8.89981 7.02285L9.18779 7.26847L8.68957 7.73107C7.37193 8.95475 7.04216 9.28192 6.21086 10.1903C4.10397 12.4927 2.55176 14.7629 2.15926 16.116C1.81355 17.3078 2.41612 18.6762 3.40425 18.9428C4.30379 19.1855 5.00707 18.6724 5.94026 17.0924C7.33497 14.7311 9.17329 12.3926 11.2208 10.3748L11.7663 9.83731L12.2342 10.3324C13.003 11.1457 13.9769 12.2798 15.0672 13.6312C16.3795 15.2576 17.0435 15.904 17.364 15.8671C17.6536 15.8336 17.7178 15.5633 17.6179 14.7994C17.3925 13.0764 15.8881 10.1647 14.0653 7.92325C13.9608 7.79471 15.4005 6.5893 17.8919 4.71909C19.8173 3.27392 20.706 2.50317 20.9158 2.09655C21.0318 1.8715 21.0301 1.83394 20.8971 1.68662C20.7773 1.554 20.6332 1.52452 20.1068 1.52503C18.26 1.52673 15.0208 2.91378 12.2323 4.89708L11.6988 5.27651L10.8735 4.48366C8.24739 1.96087 5.1567 -0.00441046 3.8221 7.43376e-06C3.70554 0.000432232 3.4073 0.0709487 3.15942 0.156758Z" fill="#EB0100"/>
</svg>
