<svg id="fullscreen" xmlns="http://www.w3.org/2000/svg" width="25.718" height="19.989" viewBox="0 0 25.718 19.989">
  <g id="Group_172" data-name="Group 172">
    <path id="Path_35" data-name="Path 35" d="M80.168,12.657H74.759v3.079c1.531,0,3.062,0,4.593,0,2.614,0,3.906-1.215,3.853-3.933-.013-.621-.009-1.243-.016-1.862H80.168Z" transform="translate(-57.489 4.246)" fill="#fff"/>
    <path id="Path_36" data-name="Path 36" d="M80.168,3.06V5.369H83.18c0-.591,0-1.183.01-1.774C83.21,1.215,81.973.053,79.722.033,78.067.018,76.413.019,74.759.012V3.06Z" transform="translate(-57.489 -0.006)" fill="#fff"/>
    <path id="Path_37" data-name="Path 37" d="M65.828,3.062h5.286V.008c-1.574,0-3.151,0-4.726.011-2.437.009-3.726,1.243-3.721,3.742,0,.537,0,1.073,0,1.61h3.161Z" transform="translate(-62.667 -0.008)" fill="#fff"/>
    <path id="Path_38" data-name="Path 38" d="M65.828,12.657V9.941H62.667c0,.676,0,1.351,0,2.028-.009,2.5,1.268,3.729,3.708,3.756,1.58.017,3.159.02,4.739.017V12.657Z" transform="translate(-62.667 4.246)" fill="#fff"/>
  </g>
</svg>
