<svg id="instagram" xmlns="http://www.w3.org/2000/svg" width="20" height="20" viewBox="0 0 20 20">
  <rect id="Area" width="20" height="20" fill="#fff" opacity="0"/>
  <g id="Icon" transform="translate(1.29 2.499)">
    <path id="_872db266-4fc2-4cc3-8483-3e0212b04397" data-name="872db266-4fc2-4cc3-8483-3e0212b04397" d="M10.426,4.545a5.9,5.9,0,0,0-5.881,5.881v8.239a5.9,5.9,0,0,0,5.881,5.88h8.239a5.9,5.9,0,0,0,5.88-5.88V10.426a5.9,5.9,0,0,0-5.88-5.881Zm0,1.819h8.239a4.056,4.056,0,0,1,4.062,4.062v8.239a4.056,4.056,0,0,1-4.062,4.062H10.426a4.056,4.056,0,0,1-4.062-4.062V10.426A4.056,4.056,0,0,1,10.426,6.364Zm9.489,1.988a.824.824,0,1,0,.824.824A.82.82,0,0,0,19.915,8.352Zm-5.37.739A5.455,5.455,0,1,0,20,14.545,5.47,5.47,0,0,0,14.545,9.091Zm0,1.818a3.636,3.636,0,1,1-3.636,3.636A3.621,3.621,0,0,1,14.545,10.909Z" transform="translate(-5.835 -7.044)" fill="#fff"/>
  </g>
</svg>
