<svg xmlns="http://www.w3.org/2000/svg" xmlns:xlink="http://www.w3.org/1999/xlink" width="74.83" height="66.62" viewBox="0 0 74.83 66.62">
  <defs>
    <clipPath id="clip-path">
      <rect id="Rectangle_31" data-name="Rectangle 31" width="74.83" height="66.366" fill="#fff"/>
    </clipPath>
    <clipPath id="clip-path-2">
      <rect id="Rectangle_31-2" data-name="Rectangle 31" width="74.83" height="66.366" fill="none" stroke="#fff" stroke-width="3.5"/>
    </clipPath>
  </defs>
  <g id="love_icon" transform="translate(0 0)">
    <g id="Group_143" data-name="Group 143" transform="translate(0 0)" opacity="0.146">
      <g id="Group_25" data-name="Group 25" transform="translate(0)" clip-path="url(#clip-path)">
        <path id="Path_32" data-name="Path 32" d="M70.718,23.954v2.611c-.032.18-.08.359-.095.54a20.585,20.585,0,0,1-2.694,8.51A40.31,40.31,0,0,1,60.882,44.5c-6.554,6.471-13.765,12.2-20.693,18.252a1.919,1.919,0,0,1-2.66-.037c-.717-.6-1.421-1.208-2.123-1.821-5.569-4.867-11.189-9.678-16.685-14.626a41.528,41.528,0,0,1-8.78-10.49c-3.787-6.8-3.99-13.7-.184-20.537a15.415,15.415,0,0,1,9.566-7.522,15.252,15.252,0,0,1,12.772,1.7,19.42,19.42,0,0,1,6.066,6.3c.234.372.463.748.632,1.021a56.2,56.2,0,0,1,3.579-4.566c4.656-4.857,10.314-6.341,16.688-4.24,6,1.977,9.478,6.412,11.029,12.43C70.392,21.533,70.513,22.754,70.718,23.954Z" transform="translate(-1.444 -1.965)" fill="#fff"/>
      </g>
    </g>
    <g id="Group_144" data-name="Group 144" transform="translate(0 0.254)">
      <g id="Group_25-2" data-name="Group 25" transform="translate(0)" clip-path="url(#clip-path-2)">
        <path id="Path_32-2" data-name="Path 32" d="M70.718,23.954v2.611c-.032.18-.08.359-.095.54a20.585,20.585,0,0,1-2.694,8.51A40.31,40.31,0,0,1,60.882,44.5c-6.554,6.471-13.765,12.2-20.693,18.252a1.919,1.919,0,0,1-2.66-.037c-.717-.6-1.421-1.208-2.123-1.821-5.569-4.867-11.189-9.678-16.685-14.626a41.528,41.528,0,0,1-8.78-10.49c-3.787-6.8-3.99-13.7-.184-20.537a15.415,15.415,0,0,1,9.566-7.522,15.252,15.252,0,0,1,12.772,1.7,19.42,19.42,0,0,1,6.066,6.3c.234.372.463.748.632,1.021a56.2,56.2,0,0,1,3.579-4.566c4.656-4.857,10.314-6.341,16.688-4.24,6,1.977,9.478,6.412,11.029,12.43C70.392,21.533,70.513,22.754,70.718,23.954Z" transform="translate(-1.444 -1.965)" fill="none" stroke="#fff" stroke-linejoin="round" stroke-width="3.5"/>
      </g>
    </g>
  </g>
</svg>
