<svg xmlns="http://www.w3.org/2000/svg" xmlns:xlink="http://www.w3.org/1999/xlink" width="80" height="70.952" viewBox="0 0 80 70.952">
  <defs>
    <clipPath id="clip-path">
      <rect id="Rectangle_31" data-name="Rectangle 31" width="80" height="70.952" fill="#67fd65"/>
    </clipPath>
  </defs>
  <g id="loveGreen" opacity="0.75">
    <g id="Group_25" data-name="Group 25" clip-path="url(#clip-path)">
      <path id="Path_32" data-name="Path 32" d="M84.353,27.582v3.17c-.039.219-.1.436-.115.656A24.991,24.991,0,0,1,80.967,41.74a48.935,48.935,0,0,1-8.555,10.78C64.455,60.375,55.7,67.333,47.291,74.677a2.33,2.33,0,0,1-3.229-.045c-.87-.724-1.725-1.466-2.577-2.211C34.724,66.512,27.9,60.671,21.23,54.664A50.414,50.414,0,0,1,10.571,41.929C5.973,33.678,5.727,25.3,10.347,17A18.713,18.713,0,0,1,21.96,7.866a18.516,18.516,0,0,1,15.5,2.059,23.576,23.576,0,0,1,7.364,7.654c.284.452.562.908.767,1.24a68.224,68.224,0,0,1,4.345-5.543c5.653-5.9,12.521-7.7,20.26-5.148,7.283,2.4,11.506,7.785,13.389,15.09C83.957,24.643,84.1,26.126,84.353,27.582Z" transform="translate(-5.677 -5.677)" fill="#67fd65"/>
    </g>
  </g>
</svg>
