<svg id="Lovebutton" xmlns="http://www.w3.org/2000/svg" xmlns:xlink="http://www.w3.org/1999/xlink" width="20" height="17.738" viewBox="0 0 20 17.738">
  <defs>
    <clipPath id="clip-path">
      <rect id="Rectangle_31" data-name="Rectangle 31" width="20" height="17.738" fill="#fff"/>
    </clipPath>
  </defs>
  <g id="Group_25" data-name="Group 25" clip-path="url(#clip-path)">
    <path id="Path_32" data-name="Path 32" d="M26.338,12.146v.793c-.01.055-.024.109-.029.164a6.248,6.248,0,0,1-.818,2.583,12.234,12.234,0,0,1-2.139,2.695c-1.989,1.964-4.178,3.7-6.28,5.539a.582.582,0,0,1-.807-.011c-.217-.181-.431-.367-.644-.553-1.69-1.477-3.4-2.937-5.064-4.439a12.6,12.6,0,0,1-2.665-3.184A6.052,6.052,0,0,1,7.837,9.5a4.678,4.678,0,0,1,2.9-2.283,4.629,4.629,0,0,1,3.876.515,5.894,5.894,0,0,1,1.841,1.913c.071.113.141.227.192.31a17.056,17.056,0,0,1,1.086-1.386A4.593,4.593,0,0,1,22.8,7.282a4.99,4.99,0,0,1,3.347,3.772C26.239,11.411,26.276,11.782,26.338,12.146Z" transform="translate(-6.669 -6.669)" fill="#fff"/>
  </g>
</svg>
