<svg xmlns="http://www.w3.org/2000/svg" xmlns:xlink="http://www.w3.org/1999/xlink" width="70" height="70" viewBox="0 0 70 70">
  <defs>
    <clipPath id="clip-path">
      <rect id="Rectangle_97" data-name="Rectangle 97" width="36.748" height="36.752" fill="#0f095c" stroke="#0f095c" stroke-width="1"/>
    </clipPath>
  </defs>
  <g id="pen-bg" transform="translate(-312.179 -413.179)">
    <g id="Group_116" data-name="Group 116" transform="translate(312 413)" opacity="0.481" style="mix-blend-mode: hard-light;isolation: isolate">
      <rect id="Rectangle_88" data-name="Rectangle 88" width="70" height="70" rx="35" transform="translate(0.179 0.179)" fill="#fff" style="mix-blend-mode: screen;isolation: isolate"/>
    </g>
    <g id="Group_117" data-name="Group 117" transform="translate(328.805 429.803)">
      <g id="Group_117-2" data-name="Group 117" clip-path="url(#clip-path)">
        <path id="Path_56" data-name="Path 56" d="M28.975,0a4.973,4.973,0,0,1,3.506,1.447c.9.883,1.794,1.78,2.686,2.674a5.042,5.042,0,0,1,.012,7.322q-6.991,7-13.992,14-3.316,3.317-6.638,6.626a2.145,2.145,0,0,1-.8.49Q7.706,34.6,1.65,36.6a2.129,2.129,0,0,1-.7.151A1,1,0,0,1,.07,35.347q1.275-3.864,2.564-7.724c.522-1.571,1.038-3.145,1.576-4.711a1.81,1.81,0,0,1,.412-.671Q14.952,11.889,25.3,1.551A5.076,5.076,0,0,1,28.975,0M24.3,5.477,6.748,23.029l6.959,6.96L31.254,12.438,24.3,5.477m8.5,5.494c.36-.356.734-.7,1.082-1.075a2.988,2.988,0,0,0,.054-4.127c-.955-1.026-1.957-2.011-2.975-2.975a2.866,2.866,0,0,0-2.476-.734c-1.255.174-1.927,1.133-2.705,1.89l7.021,7.022M5.641,25.014l-3.055,9.14,9.146-3.048L5.641,25.014" transform="translate(0)" fill="#0f095c" stroke="#0f095c" stroke-width="1"/>
      </g>
    </g>
  </g>
</svg>
