<svg xmlns="http://www.w3.org/2000/svg" xmlns:xlink="http://www.w3.org/1999/xlink" width="167" height="167" viewBox="0 0 167 167">
  <defs>
    <filter id="Path_67" x="0" y="0" width="167" height="167" filterUnits="userSpaceOnUse">
      <feOffset dy="3" input="SourceAlpha"/>
      <feGaussianBlur stdDeviation="10" result="blur"/>
      <feFlood flood-opacity="0.957"/>
      <feComposite operator="in" in2="blur"/>
      <feComposite in="SourceGraphic"/>
    </filter>
  </defs>
  <g id="play_button" transform="translate(30 27.358)">
    <g transform="matrix(1, 0, 0, 1, -30, -27.36)" filter="url(#Path_67)">
      <g id="Path_67-2" data-name="Path 67" transform="translate(30 27)" fill="#fff">
        <path d="M 53.5 104 C 46.68121719360352 104 40.06800079345703 102.6651992797852 33.84405136108398 100.0326843261719 C 27.83090019226074 97.48934936523438 22.42991638183594 93.84770202636719 17.79109954833984 89.20890045166016 C 13.15229988098145 84.57008361816406 9.510649681091309 79.16909790039062 6.967316627502441 73.15595245361328 C 4.334799766540527 66.93199920654297 3 60.31878280639648 3 53.5 C 3 46.68121719360352 4.334799766540527 40.06800079345703 6.967316627502441 33.84405136108398 C 9.510649681091309 27.83090019226074 13.15229988098145 22.42991638183594 17.79109954833984 17.79109954833984 C 22.42991638183594 13.15229988098145 27.83090019226074 9.510649681091309 33.84405136108398 6.967316627502441 C 40.06800079345703 4.334799766540527 46.68121719360352 3 53.5 3 C 60.31878280639648 3 66.93199920654297 4.334799766540527 73.15595245361328 6.967316627502441 C 79.16909790039062 9.510649681091309 84.57008361816406 13.15229988098145 89.20890045166016 17.79109954833984 C 93.84770202636719 22.42991638183594 97.48934936523438 27.83090019226074 100.0326843261719 33.84405136108398 C 102.6651992797852 40.06800079345703 104 46.68121719360352 104 53.5 C 104 60.31878280639648 102.6651992797852 66.93199920654297 100.0326843261719 73.15595245361328 C 97.48934936523438 79.16909790039062 93.84770202636719 84.57008361816406 89.20890045166016 89.20890045166016 C 84.57008361816406 93.84770202636719 79.16909790039062 97.48934936523438 73.15595245361328 100.0326843261719 C 66.93199920654297 102.6651992797852 60.31878280639648 104 53.5 104 Z" stroke="none"/>
        <path d="M 53.5 6 C 27.30841827392578 6 6 27.30841827392578 6 53.5 C 6 79.69158172607422 27.30841827392578 101 53.5 101 C 79.69158172607422 101 101 79.69158172607422 101 53.5 C 101 27.30841827392578 79.69158172607422 6 53.5 6 M 53.5 0 C 83.0472412109375 0 107 23.9527587890625 107 53.5 C 107 83.0472412109375 83.0472412109375 107 53.5 107 C 23.9527587890625 107 0 83.0472412109375 0 53.5 C 0 23.9527587890625 23.9527587890625 0 53.5 0 Z" stroke="none" fill="#67fd65"/>
      </g>
    </g>
    <g id="Group_160" data-name="Group 160" transform="translate(37.539 25.283)">
      <path id="Path_59" data-name="Path 59" d="M83.375,59.7Q66.847,47.847,50.309,36a11.083,11.083,0,0,0-1.4-.892,3.215,3.215,0,0,0-3.471.219c-.955.6-1.589,1.486-1.585,3.806q.017,8.76.007,17.523v6.507l0,6.475q0,8.855-.008,17.709c-.005,2.451.949,3.28,1.885,3.766.977.51,2.246.83,4.273-.628q5.24-3.768,10.488-7.528c7.56-5.418,15.376-11.023,23.021-16.587a5.969,5.969,0,0,0,1.955-2.57c.2-.564.743-2.06-2.1-4.1" transform="translate(-43.849 -34.702)" fill="#0e095c"/>
    </g>
  </g>
</svg>
