<svg xmlns="http://www.w3.org/2000/svg" width="17.666" height="24.023" viewBox="0 0 17.666 24.023">
  <path id="play_blue" d="M60.554,45.268q-6.985-5.011-13.974-10.017a4.684,4.684,0,0,0-.593-.377,1.359,1.359,0,0,0-1.467.093c-.4.256-.671.628-.67,1.609q.007,3.7,0,7.406v5.487q0,3.742,0,7.484c0,1.036.4,1.386.8,1.592a1.544,1.544,0,0,0,1.806-.266q2.215-1.593,4.433-3.182c3.195-2.29,6.5-4.659,9.729-7.01A2.523,2.523,0,0,0,61.44,47c.086-.238.314-.871-.886-1.732" transform="translate(-43.849 -34.702)" fill="#0e095c"/>
</svg>
