<svg xmlns="http://www.w3.org/2000/svg" xmlns:xlink="http://www.w3.org/1999/xlink" width="133.103" height="133.103" viewBox="0 0 133.103 133.103">
  <defs>
    <filter id="Path_67" x="0" y="0" width="133.103" height="133.103" filterUnits="userSpaceOnUse">
      <feOffset dy="3" input="SourceAlpha"/>
      <feGaussianBlur stdDeviation="10" result="blur"/>
      <feFlood flood-opacity="0.957"/>
      <feComposite operator="in" in2="blur"/>
      <feComposite in="SourceGraphic"/>
    </filter>
  </defs>
  <g id="play_button_white" transform="translate(30 27.358)">
    <g transform="matrix(1, 0, 0, 1, -30, -27.36)" filter="url(#Path_67)">
      <g id="Path_67-2" data-name="Path 67" transform="translate(30 27)" fill="rgba(62,51,125,0.42)">
        <path d="M 36.55162811279297 71.60326385498047 C 31.81902885437012 71.60326385498047 27.22879409790039 70.67670440673828 22.90841674804688 68.84934997558594 C 18.73467254638672 67.08400726318359 14.9859504699707 64.55644226074219 11.76639461517334 61.33687210083008 C 8.546828269958496 58.11730575561523 6.019261360168457 54.36859512329102 4.253917217254639 50.19485092163086 C 2.42656135559082 45.87447357177734 1.500005841255188 41.28422927856445 1.500005841255188 36.55162811279297 C 1.500005841255188 31.81902885437012 2.42656135559082 27.22879409790039 4.253917217254639 22.90841674804688 C 6.019261360168457 18.73467254638672 8.546828269958496 14.9859504699707 11.76639461517334 11.76639461517334 C 14.9859504699707 8.546828269958496 18.73467254638672 6.019261360168457 22.90841674804688 4.253917217254639 C 27.22879409790039 2.42656135559082 31.81902885437012 1.500005841255188 36.55162811279297 1.500005841255188 C 41.28422927856445 1.500005841255188 45.87447357177734 2.42656135559082 50.19485092163086 4.253917217254639 C 54.36859512329102 6.019261360168457 58.11730575561523 8.546828269958496 61.33687210083008 11.76639461517334 C 64.55644226074219 14.9859504699707 67.08400726318359 18.73467254638672 68.84934997558594 22.90841674804688 C 70.67670440673828 27.22879409790039 71.60326385498047 31.81902885437012 71.60326385498047 36.55162811279297 C 71.60326385498047 41.28422927856445 70.67670440673828 45.87447357177734 68.84934997558594 50.19485092163086 C 67.08400726318359 54.36859512329102 64.55644226074219 58.11730575561523 61.33687210083008 61.33687210083008 C 58.11730575561523 64.55644226074219 54.36859512329102 67.08400726318359 50.19485092163086 68.84934997558594 C 45.87447357177734 70.67670440673828 41.28422927856445 71.60326385498047 36.55162811279297 71.60326385498047 Z" stroke="none"/>
        <path d="M 36.55162811279297 2.999992370605469 C 32.0208625793457 2.999992370605469 27.62721633911133 3.886672973632812 23.49274444580078 5.635414123535156 C 19.4977912902832 7.32513427734375 15.90933227539062 9.744747161865234 12.82704162597656 12.82704162597656 C 9.744747161865234 15.90933227539062 7.32513427734375 19.4977912902832 5.635414123535156 23.49274444580078 C 3.886672973632812 27.62721633911133 2.999992370605469 32.0208625793457 2.999992370605469 36.55162811279297 C 2.999992370605469 41.08239364624023 3.886672973632812 45.47603988647461 5.635414123535156 49.61051940917969 C 7.32513427734375 53.60546112060547 9.744747161865234 57.19392395019531 12.82704162597656 60.27621459960938 C 15.90933227539062 63.35849761962891 19.4977912902832 65.77810668945312 23.49273300170898 67.46782684326172 C 27.62721633911133 69.21656799316406 32.0208625793457 70.10324859619141 36.55162811279297 70.10324859619141 C 41.08239364624023 70.10324859619141 45.47603988647461 69.21656799316406 49.61051940917969 67.46782684326172 C 53.60546112060547 65.77810668945312 57.19392395019531 63.35849761962891 60.27621459960938 60.27621459960938 C 63.35849761962891 57.19392395019531 65.77810668945312 53.60546112060547 67.46782684326172 49.61051940917969 C 69.21656799316406 45.47603988647461 70.10324859619141 41.08239364624023 70.10324859619141 36.55162811279297 C 70.10324859619141 32.0208625793457 69.21656799316406 27.62721633911133 67.46782684326172 23.49273300170898 C 65.77810668945312 19.4977912902832 63.35849761962891 15.90933227539062 60.27621459960938 12.82704162597656 C 57.19392395019531 9.744747161865234 53.60546112060547 7.32513427734375 49.61051940917969 5.635414123535156 C 45.47603988647461 3.886672973632812 41.08239364624023 2.999992370605469 36.55162811279297 2.999992370605469 M 36.55162811279297 -7.62939453125e-06 C 56.73854827880859 -7.62939453125e-06 73.10324859619141 16.36472320556641 73.10324859619141 36.55162811279297 C 73.10324859619141 56.73854827880859 56.73854827880859 73.10324859619141 36.55162811279297 73.10324859619141 C 16.36472320556641 73.10324859619141 -7.62939453125e-06 56.73854827880859 -7.62939453125e-06 36.55162811279297 C -7.62939453125e-06 16.36472320556641 16.36472320556641 -7.62939453125e-06 36.55162811279297 -7.62939453125e-06 Z" stroke="none" fill="#fff"/>
      </g>
    </g>
    <g id="Group_160" data-name="Group 160" transform="translate(28.225 19.912)">
      <path id="Path_59" data-name="Path 59" d="M66.493,49.025Q57.024,42.233,47.55,35.446a6.348,6.348,0,0,0-.8-.511,1.842,1.842,0,0,0-1.989.126c-.547.347-.91.851-.908,2.18q.009,5.019,0,10.039v3.728l0,3.71q0,5.073,0,10.145c0,1.4.544,1.879,1.08,2.158a2.093,2.093,0,0,0,2.448-.36q3-2.159,6.009-4.313c4.331-3.1,8.809-6.315,13.189-9.5a3.42,3.42,0,0,0,1.12-1.472c.116-.323.425-1.18-1.2-2.348" transform="translate(-43.849 -34.702)" fill="#fff"/>
    </g>
  </g>
</svg>
