<svg width="167" height="167" viewBox="0 0 167 167" fill="none" xmlns="http://www.w3.org/2000/svg">
<g filter="url(#filter0_d_74_35)">
<path d="M83.5 130.998C76.6812 130.998 70.068 129.663 63.8441 127.031C57.8309 124.487 52.4299 120.846 47.7911 116.207C43.1523 111.568 39.5106 106.167 36.9673 100.154C34.3348 93.93 33 87.3168 33 80.498C33 73.6793 34.3348 67.066 36.9673 60.8421C39.5106 54.8289 43.1523 49.428 47.7911 44.7891C52.4299 40.1503 57.8309 36.5087 63.8441 33.9654C70.068 31.3328 76.6812 29.998 83.5 29.998C90.3188 29.998 96.932 31.3328 103.156 33.9654C109.169 36.5087 114.57 40.1503 119.209 44.7891C123.848 49.428 127.489 54.8289 130.033 60.8421C132.665 67.066 134 73.6793 134 80.498C134 87.3168 132.665 93.93 130.033 100.154C127.489 106.167 123.848 111.568 119.209 116.207C114.57 120.846 109.169 124.487 103.156 127.031C96.932 129.663 90.3188 130.998 83.5 130.998Z" fill="white"/>
<path d="M83.5 32.998C57.3084 32.998 36 54.3065 36 80.498C36 106.69 57.3084 127.998 83.5 127.998C109.692 127.998 131 106.69 131 80.498C131 54.3065 109.692 32.998 83.5 32.998ZM83.5 26.998C113.047 26.998 137 50.9508 137 80.498C137 110.045 113.047 133.998 83.5 133.998C53.9528 133.998 30 110.045 30 80.498C30 50.9508 53.9528 26.998 83.5 26.998Z" fill="#67FD65"/>
</g>
<path d="M107.065 77.639C96.0463 69.737 85.0243 61.837 73.999 53.939C73.5553 53.6071 73.0873 53.3089 72.599 53.047C72.0604 52.7468 71.4468 52.6078 70.8313 52.6466C70.2159 52.6855 69.6246 52.9005 69.128 53.266C68.173 53.866 67.539 54.752 67.543 57.072C67.5543 62.912 67.5567 68.753 67.55 74.595V81.102V87.577C67.55 93.4803 67.5473 99.3833 67.542 105.286C67.537 107.737 68.491 108.566 69.427 109.052C70.404 109.562 71.673 109.882 73.7 108.424C77.1933 105.912 80.6893 103.403 84.188 100.896C91.748 95.478 99.564 89.873 107.209 84.309C108.084 83.6482 108.761 82.759 109.164 81.739C109.364 81.175 109.907 79.679 107.064 77.639" fill="#0E095C"/>
<defs>
<filter id="filter0_d_74_35" x="10" y="9.99805" width="147" height="147" filterUnits="userSpaceOnUse" color-interpolation-filters="sRGB">
<feFlood flood-opacity="0" result="BackgroundImageFix"/>
<feColorMatrix in="SourceAlpha" type="matrix" values="0 0 0 0 0 0 0 0 0 0 0 0 0 0 0 0 0 0 127 0" result="hardAlpha"/>
<feOffset dy="3"/>
<feGaussianBlur stdDeviation="10"/>
<feColorMatrix type="matrix" values="0 0 0 0 0 0 0 0 0 0 0 0 0 0 0 0 0 0 0.957 0"/>
<feBlend mode="normal" in2="BackgroundImageFix" result="effect1_dropShadow_74_35"/>
<feBlend mode="normal" in="SourceGraphic" in2="effect1_dropShadow_74_35" result="shape"/>
</filter>
</defs>
</svg>
