<svg xmlns="http://www.w3.org/2000/svg" width="23.459" height="31.9" viewBox="0 0 23.459 31.9">
  <path id="play_fill" d="M66.031,48.733q-9.276-6.654-18.557-13.3a6.22,6.22,0,0,0-.788-.5,1.8,1.8,0,0,0-1.948.123c-.536.34-.892.834-.889,2.136q.009,4.916,0,9.834v3.652l0,3.634q0,4.97,0,9.938c0,1.376.533,1.841,1.058,2.114a2.05,2.05,0,0,0,2.4-.353q2.941-2.115,5.886-4.225c4.243-3.041,8.629-6.186,12.92-9.309a3.35,3.35,0,0,0,1.1-1.442c.114-.316.417-1.156-1.177-2.3" transform="translate(-43.849 -34.702)" fill="#0e095c"/>
</svg>
