<svg width="32" height="32" viewBox="0 0 32 32" fill="none" xmlns="http://www.w3.org/2000/svg">
<g clip-path="url(#clip0_74_49)">
<g filter="url(#filter0_d_74_49)">
<path d="M16 31.1028C13.9608 31.1028 11.983 30.7036 10.1216 29.9163C8.32328 29.1557 6.70803 28.0666 5.32072 26.6793C3.93342 25.292 2.84433 23.6768 2.0837 21.8784C1.29641 20.0171 0.897217 18.0393 0.897217 16C0.897217 13.9608 1.29641 11.983 2.0837 10.1216C2.84433 8.32328 3.93342 6.70803 5.32072 5.32072C6.70803 3.93342 8.32328 2.84433 10.1216 2.0837C11.983 1.29641 13.9608 0.897217 16 0.897217C18.0393 0.897217 20.0171 1.29641 21.8784 2.0837C23.6768 2.84433 25.292 3.93342 26.6793 5.32072C28.0666 6.70803 29.1557 8.32328 29.9163 10.1216C30.7036 11.983 31.1028 13.9608 31.1028 16C31.1028 18.0393 30.7036 20.0171 29.9163 21.8784C29.1557 23.6768 28.0666 25.292 26.6793 26.6793C25.292 28.0666 23.6768 29.1557 21.8784 29.9163C20.0171 30.7036 18.0393 31.1028 16 31.1028Z" fill="white"/>
<path d="M16 1.79439C8.167 1.79439 1.79439 8.167 1.79439 16C1.79439 23.833 8.167 30.2056 16 30.2056C23.833 30.2056 30.2056 23.833 30.2056 16C30.2056 8.167 23.833 1.79439 16 1.79439ZM16 0C24.8366 0 32 7.16344 32 16C32 24.8366 24.8366 32 16 32C7.16344 32 0 24.8366 0 16C0 7.16344 7.16344 0 16 0Z" fill="#67FD65"/>
</g>
<path d="M23.0475 15.145C19.7522 12.7817 16.4559 10.4191 13.1586 8.05711C13.0259 7.95785 12.886 7.86868 12.7399 7.79035C12.5788 7.70056 12.3953 7.659 12.2113 7.67061C12.0272 7.68222 11.8504 7.74652 11.7019 7.85584C11.4163 8.03528 11.2266 8.30025 11.2278 8.99408C11.2312 10.7406 11.2319 12.4875 11.2299 14.2346V16.1806V18.1171C11.2299 19.8826 11.2291 21.6479 11.2275 23.4132C11.226 24.1462 11.5114 24.3942 11.7913 24.5395C12.0835 24.692 12.463 24.7877 13.0692 24.3517C14.1139 23.6004 15.1595 22.85 16.2058 22.1003C18.4667 20.48 20.8042 18.8037 23.0906 17.1397C23.3524 16.9421 23.5547 16.6762 23.6752 16.3711C23.7351 16.2025 23.8975 15.7551 23.0472 15.145" fill="#0E095C"/>
</g>
<defs>
<filter id="filter0_d_74_49" x="-20" y="-17" width="72" height="72" filterUnits="userSpaceOnUse" color-interpolation-filters="sRGB">
<feFlood flood-opacity="0" result="BackgroundImageFix"/>
<feColorMatrix in="SourceAlpha" type="matrix" values="0 0 0 0 0 0 0 0 0 0 0 0 0 0 0 0 0 0 127 0" result="hardAlpha"/>
<feOffset dy="3"/>
<feGaussianBlur stdDeviation="10"/>
<feColorMatrix type="matrix" values="0 0 0 0 0 0 0 0 0 0 0 0 0 0 0 0 0 0 0.957 0"/>
<feBlend mode="normal" in2="BackgroundImageFix" result="effect1_dropShadow_74_49"/>
<feBlend mode="normal" in="SourceGraphic" in2="effect1_dropShadow_74_49" result="shape"/>
</filter>
<clipPath id="clip0_74_49">
<rect width="32" height="32" fill="white"/>
</clipPath>
</defs>
</svg>
