<svg xmlns="http://www.w3.org/2000/svg" xmlns:xlink="http://www.w3.org/1999/xlink" width="34.465" height="34.463" viewBox="0 0 34.465 34.463">
  <defs>
    <clipPath id="clip-path">
      <rect id="Rectangle_3" data-name="Rectangle 3" width="34.465" height="34.463" fill="#fff"/>
    </clipPath>
  </defs>
  <g id="Group_3" data-name="Group 3" clip-path="url(#clip-path)">
    <path id="Path_5" data-name="Path 5" d="M14.81,0c.551.085,1.11.137,1.653.259,5.686,1.277,9.383,4.711,10.846,10.35a13.28,13.28,0,0,1-2.267,11.453c-.058.082-.118.164-.175.247a.927.927,0,0,0-.046.145,2.263,2.263,0,0,1,.291.218q4.381,4.375,8.758,8.753A1.726,1.726,0,0,1,31.7,34.108a4.077,4.077,0,0,1-.394-.366l-8.685-8.684c-.078-.078-.16-.151-.252-.238a14.589,14.589,0,0,1-3.075,1.8A13.874,13.874,0,0,1,.268,16.533C.16,15.962.088,15.384,0,14.81V12.925c.087-.572.161-1.147.264-1.717A13.854,13.854,0,0,1,10.874.337c.7-.144,1.412-.226,2.118-.337ZM3.436,13.843a10.429,10.429,0,1,0,10.457-10.4,10.459,10.459,0,0,0-10.457,10.4" fill="#fff"/>
  </g>
</svg>
