<svg width="30" height="30" viewBox="0 0 30 30" fill="none" xmlns="http://www.w3.org/2000/svg">
<path fill-rule="evenodd" clip-rule="evenodd" d="M7.49053 7.49061L0 14.9812L7.49991 22.481L14.9998 29.9809V26.2309V22.4809L11.2686 18.7498C9.21645 16.6978 7.53741 15.0019 7.53741 14.9813C7.53741 14.9607 9.21652 13.2646 11.2688 11.2122L15.0002 7.48074L14.9906 3.74035L14.9811 0L7.49053 7.49061ZM22.5091 7.47186C18.3996 11.5814 15.0373 14.9606 15.0373 14.9812C15.0373 15.0241 29.9287 29.9247 29.9715 29.9247C29.987 29.9247 29.9996 28.2415 29.9996 26.1842V22.4437L26.2591 18.703L22.5186 14.9624L26.2593 11.2215L30 7.48074L29.9904 3.74035L29.9809 0L22.5091 7.47186ZM13.1248 5.61555V6.69363L8.99059 10.828L4.8563 14.9624L8.99115 19.0974L13.126 23.2323L13.116 24.3286L13.1061 25.4249L7.87494 20.1936L2.64383 14.9624L7.85615 9.74995C10.723 6.88311 13.0811 4.53752 13.0967 4.53752C13.1122 4.53752 13.1248 5.02265 13.1248 5.61555ZM23.991 10.8274L19.8561 14.9624L23.9904 19.0968L28.1246 23.2311V24.3373V25.4434L22.8935 20.2123L17.6623 14.9813L22.8841 9.75929L28.1059 4.53737L28.1159 5.61492L28.1258 6.69243L23.991 10.8274Z" fill="#67FE65"/>
</svg>
