<svg id="Soundbutton" xmlns="http://www.w3.org/2000/svg" xmlns:xlink="http://www.w3.org/1999/xlink" width="32" height="32" viewBox="0 0 32 32">
  <defs>
    <clipPath id="clip-path">
      <rect id="Rectangle_9" data-name="Rectangle 9" width="20" height="15.877" fill="#0e095c"/>
    </clipPath>
  </defs>
  <circle id="Ellipse_3" data-name="Ellipse 3" stroke="red" cx="16" cy="16" r="16" fill="#67fd65"/>
        <line x1="28" y1="5" x2="5" y2="28" style="stroke:rgb(255,0,0);stroke-width:2" />  
  <g id="Group_219" data-name="Group 219" transform="translate(2 2)">
    <g id="Group_218" data-name="Group 218" transform="translate(4 6.061)">
      <g id="Group_7" data-name="Group 7" transform="translate(0 0)" clip-path="url(#clip-path)">
        <path id="Path_9" data-name="Path 9" d="M0,8.8A1.024,1.024,0,0,1,1.149,8.05c.741.022,1.483.01,2.225,0a.537.537,0,0,0,.311-.112q2.38-1.959,4.751-3.929a.892.892,0,0,1,1.368.1,1.189,1.189,0,0,1,.187.6c.027.467.009.936.009,1.4q0,5.337,0,10.674A.921.921,0,0,1,9.186,17.8a.932.932,0,0,1-.734-.251q-1.8-1.495-3.605-2.987c-.39-.324-.777-.652-1.175-.968a.518.518,0,0,0-.3-.1c-.728-.009-1.458-.026-2.185,0A1.063,1.063,0,0,1,0,12.778Z" transform="translate(0 -2.732)" fill="#0e095c"/>
        <path id="Path_10" data-name="Path 10" d="M61.685,7.739a11.938,11.938,0,0,1-2.7,7.746.908.908,0,0,1-1.31.2.94.94,0,0,1-.241-1.426,11.167,11.167,0,0,0,1.256-1.945A9.543,9.543,0,0,0,59.6,9.3a9.543,9.543,0,0,0-1.718-6.888c-.179-.255-.382-.494-.58-.735A.947.947,0,0,1,57.473.217a.92.92,0,0,1,1.342.178,11.468,11.468,0,0,1,2.676,5.633c.114.664.153,1.341.193,1.711" transform="translate(-41.685 0)" fill="#0e095c"/>
        <path id="Path_11" data-name="Path 11" d="M48.82,16.477a7.2,7.2,0,0,1-1.414,4.334.908.908,0,0,1-1.259.248.963.963,0,0,1-.37-1.364,5.81,5.81,0,0,0,.892-1.871,5.231,5.231,0,0,0-.831-4.413,2.269,2.269,0,0,1-.34-.583,1,1,0,0,1,.589-1.153.913.913,0,0,1,1.147.292,7.162,7.162,0,0,1,1.586,4.512" transform="translate(-33.229 -8.462)" fill="#0e095c"/>
      </g>
    </g>
    <rect id="Rectangle_180" data-name="Rectangle 180" width="28" height="28" fill="none"/>
  </g>
</svg>