<svg width="32" height="32" viewBox="0 0 32 32" fill="none" xmlns="http://www.w3.org/2000/svg">
<g clip-path="url(#clip0_74_59)">
<path d="M16 31C24.2843 31 31 24.2843 31 16C31 7.71573 24.2843 1 16 1C7.71573 1 1 7.71573 1 16C1 24.2843 7.71573 31 16 31Z" fill="white" stroke="#67FD65" stroke-width="2"/>
<path fill-rule="evenodd" clip-rule="evenodd" d="M14.9758 14.9387C6.81201 23.0292 5.12575 25 6.36533 25C7.02072 25 25.2494 6.76258 24.9974 6.35875C24.8745 6.16134 24.5985 6 24.3843 6C24.1704 6 19.9364 10.0222 14.9758 14.9387ZM17.138 8.13412C16.4416 8.6001 15.0476 9.68761 14.0398 10.5503L12.2076 12.1186H9.73232H7.25706V15.822V19.5254H8.1644C8.90366 19.5254 10.0158 18.5835 14.1786 14.4305C19.2429 9.37846 19.8593 8.48256 18.8447 7.64849C18.5066 7.37058 18.1087 7.48393 17.138 8.13412ZM20.8502 13.3086C20.7832 13.4512 20.7374 14.5822 20.7484 15.822C20.766 17.8286 20.8372 18.0763 21.3964 18.0763C22.711 18.0763 22.8082 13.3994 21.4984 13.1495C21.2088 13.0944 20.9168 13.1659 20.8502 13.3086ZM16.1971 17.2738L13.2713 20.1898L14.5717 21.2979C15.2869 21.9075 16.4273 22.7966 17.1061 23.2742C18.1971 24.0413 18.3964 24.0867 18.8226 23.6645C19.2114 23.2794 19.2871 22.3326 19.2137 18.7722L19.123 14.3577L16.1971 17.2738Z" fill="#0E095C"/>
</g>
<defs>
<clipPath id="clip0_74_59">
<rect width="32" height="32" fill="white"/>
</clipPath>
</defs>
</svg>
