<svg id="twitter" xmlns="http://www.w3.org/2000/svg" width="20" height="20" viewBox="0 0 20 20">
  <rect id="Area" width="20" height="20" fill="#fff" opacity="0"/>
  <g id="Icon" transform="translate(1.29 2.499)">
    <path id="_3cca5177-fd73-4df6-9bb7-4dae93f4538e" data-name="3cca5177-fd73-4df6-9bb7-4dae93f4538e" d="M23.333,7.132a8.163,8.163,0,0,1-2.356.645,4.119,4.119,0,0,0,1.8-2.269,8.273,8.273,0,0,1-2.6,1,4.1,4.1,0,0,0-7.1,2.806,3.987,3.987,0,0,0,.108.934A11.631,11.631,0,0,1,4.726,5.957,4.106,4.106,0,0,0,6,11.435a4.063,4.063,0,0,1-1.859-.514v.052A4.1,4.1,0,0,0,7.428,15a4.1,4.1,0,0,1-1.08.146,3.994,3.994,0,0,1-.772-.075A4.111,4.111,0,0,0,9.407,17.92a8.279,8.279,0,0,1-6.074,1.7A11.668,11.668,0,0,0,21.3,9.785c0-.176-.007-.355-.013-.53A8.4,8.4,0,0,0,23.333,7.132Z" transform="translate(-4.623 -5.832)" fill="#fff"/>
  </g>
</svg>
