<svg id="youtube" xmlns="http://www.w3.org/2000/svg" width="20" height="20" viewBox="0 0 20 20">
  <rect id="Area" width="20" height="20" fill="#fff" opacity="0"/>
  <g id="Icon" transform="translate(1.29 2.499)">
    <path id="_30dcc537-c449-427a-addd-df5566f229d8" data-name="30dcc537-c449-427a-addd-df5566f229d8" d="M12.308,4.615a49.505,49.505,0,0,0-7.02.529A3.05,3.05,0,0,0,2.716,7.6a26.244,26.244,0,0,0-.408,4.712,26.231,26.231,0,0,0,.408,4.711,3.045,3.045,0,0,0,2.572,2.452,49.624,49.624,0,0,0,7.02.529,49.621,49.621,0,0,0,7.019-.529A3.044,3.044,0,0,0,21.9,17.019a26.289,26.289,0,0,0,.409-4.711A26.033,26.033,0,0,0,21.9,7.6a3.049,3.049,0,0,0-2.572-2.452A49.5,49.5,0,0,0,12.308,4.615Zm0,1.539a48.465,48.465,0,0,1,6.8.505,1.513,1.513,0,0,1,1.274,1.226,24.587,24.587,0,0,1,.384,4.423,24.625,24.625,0,0,1-.384,4.423,1.507,1.507,0,0,1-1.274,1.226,48.931,48.931,0,0,1-6.8.5,48.866,48.866,0,0,1-6.8-.5,1.509,1.509,0,0,1-1.274-1.226,24.459,24.459,0,0,1-.385-4.423,24.422,24.422,0,0,1,.385-4.423A1.509,1.509,0,0,1,5.505,6.659,48.4,48.4,0,0,1,12.308,6.154ZM10,7.909v8.8l1.154-.649,5.384-3.077,1.154-.673-1.154-.673L11.154,8.558Zm1.538,2.644,3.053,1.755-3.053,1.754Z" transform="translate(-3.598 -4.806)" fill="#fff"/>
  </g>
</svg>
